# 3ds Max Wavefront OBJ Exporter v0.97b - (c)2007 guruware
# File Created: 13.06.2020 13:47:12

#
# object Box001
#

v  -2.1585 -3.6700 4.0000
v  2.1585 -3.6700 4.0000
v  2.1585 3.6700 4.0000
v  -2.1585 3.6700 4.0000
v  -5.0000 -5.0000 5.0000
v  5.0000 -5.0000 5.0000
v  2.5353 -4.0615 5.0000
v  -2.5353 -4.0615 5.0000
v  5.0000 5.0000 5.0000
v  2.5353 4.0615 5.0000
v  -5.0000 5.0000 5.0000
v  -2.5353 4.0615 5.0000
v  -4.0000 -3.6700 -2.1585
v  -4.0000 -3.6700 2.1585
v  -4.0000 3.6700 2.1585
v  -4.0000 3.6700 -2.1585
v  -5.0000 -5.0000 -5.0000
v  -5.0000 -4.0615 2.5353
v  -5.0000 -4.0615 -2.5353
v  -5.0000 4.0615 2.5353
v  -5.0000 5.0000 -5.0000
v  -5.0000 4.0615 -2.5353
# 22 vertices

vn 0.4635 0.4579 0.7586
vn -0.4635 0.4579 0.7586
vn -0.4635 -0.4579 0.7586
vn 0.4635 -0.4579 0.7586
vn -0.7071 0.0000 0.7071
vn 0.0000 0.0000 1.0000
vn -0.1961 0.1973 0.9605
vn 0.1961 0.1973 0.9605
vn -0.1961 -0.1973 0.9605
vn 0.1961 -0.1973 0.9605
vn -0.7586 0.4579 0.4635
vn -0.7586 0.4579 -0.4635
vn -0.7586 -0.4579 -0.4635
vn -0.7586 -0.4579 0.4635
vn -1.0000 0.0000 -0.0000
vn -0.9605 0.1973 -0.1961
vn -0.9605 0.1973 0.1961
vn -0.9605 -0.1973 -0.1961
vn -0.9605 -0.1973 0.1961
# 19 vertex normals

vt 0.0000 0.0000 0.0000
vt 1.0000 0.0000 0.0000
vt 1.0000 1.0000 0.0000
vt 0.0000 1.0000 0.0000
# 4 texture coords

o Box001
g Box001
s 1
f 1/1/1 2/2/2 3/3/3 4/4/4 
f 5/1/5 6/2/6 7/2/7 8/1/8 
f 6/2/6 9/3/6 10/3/9 7/2/7 
f 9/3/6 11/4/5 12/4/10 10/3/9 
f 11/4/5 5/1/5 8/1/8 12/4/10 
s 2
f 8/1/8 7/2/7 2/2/2 1/1/1 
s 4
f 7/2/7 10/3/9 3/3/3 2/2/2 
s 2
f 10/3/9 12/4/10 4/4/4 3/3/3 
s 4
f 12/4/10 8/1/8 1/1/1 4/4/4 
s 1
f 13/1/11 14/2/12 15/3/13 16/4/14 
s 2
f 17/1/15 5/2/5 18/2/16 19/1/17 
f 5/2/5 11/3/5 20/3/18 18/2/16 
f 11/3/5 21/4/15 22/4/19 20/3/18 
f 21/4/15 17/1/15 19/1/17 22/4/19 
s 4
f 19/1/17 18/2/16 14/2/12 13/1/11 
s 8
f 18/2/16 20/3/18 15/3/13 14/2/12 
s 4
f 20/3/18 22/4/19 16/4/14 15/3/13 
s 8
f 22/4/19 19/1/17 13/1/11 16/4/14 
# 18 polygons

